<svg
  width="28"
  height="27"
  viewBox="0 0 28 27"
  fill="none"
  xmlns="http://www.w3.org/2000/svg">
  <path
    d="M5.2916 11.8027C4.64422 11.247 3.81155 10.9404 2.94935 10.9404C2.08715 10.9404 1.25448 11.247 0.607103 11.8027V4.94851C0.604086 4.63799 0.663873 4.32994 0.783038 4.042C0.902204 3.75406 1.07841 3.49189 1.30156 3.2705C1.52471 3.04911 1.79043 2.87286 2.08349 2.75183C2.37655 2.6308 2.69119 2.56737 3.00941 2.56519C3.62042 2.57973 4.20146 2.82648 4.6288 3.25287C5.05614 3.67927 5.29601 4.25163 5.29732 4.84804V11.8027H5.2916Z"
    fill="white"
  />
  <path
    d="M27.3814 3.6703C27.3814 2.83096 27.0397 2.02599 26.4315 1.43249C25.8233 0.838982 24.9984 0.505554 24.1383 0.505554H3.36981C4.26793 0.507025 5.12891 0.855449 5.76451 1.47464C6.40011 2.09384 6.75862 2.93343 6.76164 3.80984V21.8941C6.76303 22.4333 6.95041 22.9562 7.29358 23.3788L9.3813 25.9631C9.48785 26.1017 9.62602 26.2142 9.78487 26.2917C9.94371 26.3692 10.1189 26.4096 10.2965 26.4096C10.4741 26.4096 10.6492 26.3692 10.8081 26.2917C10.9669 26.2142 11.1051 26.1017 11.2116 25.9631L12.7731 24.0318C12.8797 23.8932 13.0179 23.7807 13.1767 23.7032C13.3355 23.6257 13.5107 23.5853 13.6883 23.5853C13.8659 23.5853 14.041 23.6257 14.1999 23.7032C14.3587 23.7807 14.4969 23.8932 14.6035 24.0318L16.1592 25.9631C16.2658 26.1017 16.404 26.2142 16.5628 26.2917C16.7216 26.3692 16.8968 26.4096 17.0744 26.4096C17.252 26.4096 17.4271 26.3692 17.586 26.2917C17.7448 26.2142 17.883 26.1017 17.9896 25.9631L19.5511 24.0318C19.6576 23.8932 19.7958 23.7807 19.9546 23.7032C20.1135 23.6257 20.2886 23.5853 20.4662 23.5853C20.6438 23.5853 20.819 23.6257 20.9778 23.7032C21.1367 23.7807 21.2748 23.8932 21.3814 24.0318L22.9372 25.9631C23.0437 26.1017 23.1819 26.2142 23.3407 26.2917C23.4996 26.3692 23.6747 26.4096 23.8523 26.4096C24.0299 26.4096 24.2051 26.3692 24.3639 26.2917C24.5228 26.2142 24.6609 26.1017 24.7675 25.9631L27.0554 23.1109C27.2573 22.8611 27.368 22.5527 27.37 22.2346L27.3814 3.6703ZM18.7274 17.881H9.9018C9.67425 17.881 9.45602 17.7927 9.29512 17.6357C9.13422 17.4787 9.04383 17.2658 9.04383 17.0437C9.04383 16.8217 9.13422 16.6087 9.29512 16.4517C9.45602 16.2947 9.67425 16.2065 9.9018 16.2065H18.7274C18.955 16.2065 19.1732 16.2947 19.3341 16.4517C19.495 16.6087 19.5854 16.8217 19.5854 17.0437C19.5854 17.2658 19.495 17.4787 19.3341 17.6357C19.1732 17.7927 18.955 17.881 18.7274 17.881ZM18.7274 14.6771H9.9018C9.67425 14.6771 9.45602 14.5889 9.29512 14.4319C9.13422 14.2749 9.04383 14.062 9.04383 13.8399C9.04383 13.6179 9.13422 13.4049 9.29512 13.2479C9.45602 13.0909 9.67425 13.0027 9.9018 13.0027H18.7274C18.955 13.0027 19.1732 13.0909 19.3341 13.2479C19.495 13.4049 19.5854 13.6179 19.5854 13.8399C19.5854 14.062 19.495 14.2749 19.3341 14.4319C19.1732 14.5889 18.955 14.6771 18.7274 14.6771ZM10.8627 9.16814C10.6352 9.16814 10.4169 9.07993 10.256 8.92292C10.0951 8.7659 10.0048 8.55295 10.0048 8.3309C10.0048 8.10885 10.0951 7.8959 10.256 7.73889C10.4169 7.58188 10.6352 7.49367 10.8627 7.49367H23.1431C23.3706 7.49367 23.5889 7.58188 23.7498 7.73889C23.9107 7.8959 24.001 8.10885 24.001 8.3309C24.001 8.55295 23.9107 8.7659 23.7498 8.92292C23.5889 9.07993 23.3706 9.16814 23.1431 9.16814H10.8627ZM24.2413 17.881H21.9934C21.7659 17.881 21.5476 17.7927 21.3867 17.6357C21.2258 17.4787 21.1354 17.2658 21.1354 17.0437C21.1354 16.8217 21.2258 16.6087 21.3867 16.4517C21.5476 16.2947 21.7659 16.2065 21.9934 16.2065H24.2413C24.4688 16.2065 24.687 16.2947 24.8479 16.4517C25.0088 16.6087 25.0992 16.8217 25.0992 17.0437C25.0992 17.2658 25.0088 17.4787 24.8479 17.6357C24.687 17.7927 24.4688 17.881 24.2413 17.881ZM24.2413 14.6771H21.9934C21.7659 14.6771 21.5476 14.5889 21.3867 14.4319C21.2258 14.2749 21.1354 14.062 21.1354 13.8399C21.1354 13.6179 21.2258 13.4049 21.3867 13.2479C21.5476 13.0909 21.7659 13.0027 21.9934 13.0027H24.2413C24.4688 13.0027 24.687 13.0909 24.8479 13.2479C25.0088 13.4049 25.0992 13.6179 25.0992 13.8399C25.0992 14.062 25.0088 14.2749 24.8479 14.4319C24.687 14.5889 24.4688 14.6771 24.2413 14.6771Z"
    fill="white"
  />
</svg>
