<svg
  width="50"
  height="42"
  viewBox="0 0 50 42"
  fill="none"
  xmlns="http://www.w3.org/2000/svg">
  <path
    d="M48.1137 21.5369C48.7375 21.4655 49.3475 21.7538 49.6823 22.2784C50.017 22.8029 50.017 23.4705 49.6823 23.9951C49.3475 24.5196 48.7375 24.808 48.1137 24.7365H45.8078V30.7706C45.8135 33.5878 44.6839 36.2915 42.6679 38.2855C40.6519 40.2795 37.9152 41.4001 35.0612 41.4001H33.2992C32.3981 41.4001 31.6676 40.679 31.6676 39.7896C31.6676 38.9001 32.3981 38.179 33.2992 38.179H35.0612C39.1722 38.132 42.4797 34.8289 42.4794 30.7706V24.7365H36.3665V27.1416C36.3665 28.4799 35.8279 29.7635 34.8692 30.7099C33.9104 31.6562 32.6101 32.1879 31.2543 32.1879H18.811C15.9876 32.1879 13.6987 29.9286 13.6987 27.1416V24.7365H7.67287V30.7706C7.67287 34.8622 11.033 38.179 15.178 38.179H17.0489C17.95 38.179 18.6804 38.9001 18.6804 39.7896C18.6804 40.679 17.95 41.4001 17.0489 41.4001H15.2868C9.32179 41.4004 4.46941 36.6584 4.40976 30.7706V24.7365H1.88629C1.26244 24.808 0.652419 24.5196 0.317694 23.9951C-0.0170308 23.4705 -0.0170308 22.8029 0.317694 22.2784C0.652419 21.7538 1.26244 21.4655 1.88629 21.5369H48.1137ZM31.2325 9.81231C32.5884 9.81231 33.8887 10.344 34.8474 11.2903C35.8061 12.2367 36.3447 13.5203 36.3447 14.8586V17.6287C36.3509 17.79 36.2887 17.9465 36.1731 18.0606C36.0575 18.1747 35.899 18.2361 35.7356 18.23H14.3079C14.1445 18.2361 13.986 18.1747 13.8704 18.0606C13.7548 17.9465 13.6926 17.79 13.6987 17.6287V14.8586C13.6987 12.0716 15.9876 9.81231 18.811 9.81231H31.2325ZM35.0612 0.600098C40.9919 0.70549 45.7434 5.48181 45.7425 11.3369V13.6346C45.7425 14.5241 45.012 15.2451 44.1109 15.2451C43.2099 15.2451 42.4794 14.5241 42.4794 13.6346V11.3369C42.5084 9.36837 41.7425 7.46935 40.3506 6.05921C38.9588 4.64906 37.0556 3.84377 35.0612 3.82115H33.2992C32.3981 3.82115 31.6676 3.10009 31.6676 2.21062C31.6676 1.32115 32.3981 0.600098 33.2992 0.600098H35.0612ZM16.9401 0.600098C17.8363 0.611663 18.5599 1.32599 18.5717 2.21062C18.5599 3.09526 17.8363 3.80958 16.9401 3.82115H15.178C13.1685 3.82094 11.2429 4.61619 9.83225 6.02885C8.42159 7.44151 7.64375 9.35357 7.67287 11.3369V13.6346C7.66115 14.5193 6.9375 15.2336 6.04131 15.2451H6.01956L5.80038 15.2278C5.01243 15.1127 4.40976 14.4423 4.40976 13.6346V11.3369C4.40946 5.44882 9.21332 0.658979 15.178 0.600098H16.9401Z"
    fill="white"
  />
</svg>